<?xml version="1.0" encoding="UTF-8"?>
<svg xmlns="http://www.w3.org/2000/svg" id="a" width="865.76" height="682.89" viewBox="0 0 865.76 682.89">
  <g>
    <circle cx="741.32" cy="71.32" r="14.32" fill="#231f20" stroke="#231f20" stroke-miterlimit="10"></circle>
    <circle cx="734.3" cy="76.46" r="7.97" fill="#0373b1" stroke="#231f20" stroke-miterlimit="10"></circle>
    <path d="M731.15,622.48s-1.4,.44-1.35,3.4c.03,1.79,.88,3.48,2.32,4.55,1.65,1.23,4.57,2.73,9.68,3.91,0,0,19.59,4.19,41.88,1.35,0,0,15.54-3.24,22.29-3.92l12.29-1.49s11.48-1.08,3.24-12.97c0,0,.1-5.85-2.38-7.65l-87.97,12.82Z" fill="#fff" stroke="#231f20" stroke-miterlimit="10"></path>
    <path d="M819.48,613.67c-2.84,3.78-16.08,5.94-16.08,5.94-2.59,.41-4.26,1.39-5.18,2.12-.95,.75-1.98,1.38-3.09,1.86-13.17,5.69-29.15,6.42-29.15,6.42-21.35,.5-30.29-3.53-33.53-5.7-1.18-.79-1.65-2.31-1.09-3.62,1.56-3.64,6.28-5.06,8.7-5.56,1.6-.33,3.15-.82,4.63-1.5,.91-.42,1.84-.89,2.8-1.4,8.68-4.68,18.92-12.96,23.26-16.61,1.37-1.15,2.35-2.7,2.8-4.43l1.35-5.21c.27-1.89,1.57-1.1,1.57-1.1l20.46,7.18,3.09,1.08,17.56,9.05c1.76,5.13,1.89,11.48,1.89,11.48Z" fill="#ff973f" stroke="#231f20" stroke-miterlimit="10"></path>
    <path d="M798.17,598.12c.54,2.66-.71,5.36-3.09,6.67l-3.83,2.1c-1.12,.61-2.45,.7-3.64,.22l-2.86-1.14c-2.84-1.76-6.21,1.08-6.21,1.08l-11.68,7.56c-2.25,1.46-4.82,2.36-7.49,2.57-8.74,.69-11.88-4.76-11.88-4.76v-.2c8.68-4.68,18.91-12.96,23.25-16.61,1.37-1.15,2.35-2.7,2.8-4.43l1.35-5.21c.27-1.89,1.57-1.1,1.57-1.1l20.46,7.18,1.24,6.07Z" fill="#fff" stroke="#231f20" stroke-miterlimit="10"></path>
    <path d="M736.3,599.19s1.44,.16,.63,3.4c0,0-.54,2.03,.68,3.65,0,0,2.57,3.78,.81,7.57,0,0-2.84,6.21-15.27,4.32,0,0-22.02-3.11-32.29-1.49,0,0-33.64,5-43.64-4.19,0,0-5-4.05-.81-7.7l28.91-.95,28.64,.54,32.33-5.16Z" fill="#fff" stroke="#231f20" stroke-miterlimit="10"></path>
    <rect x="697.28" y="582.93" width="12.97" height="10" fill="#faa27f" stroke="#231f20" stroke-miterlimit="10"></rect>
    <path d="M635.99,606.2v3.96s0,.53,.19,1.13c.25,.78,.98,1.3,1.8,1.3h4.51v-6.45l-6.51,.07Z" fill="#231f20" stroke="#231f20" stroke-miterlimit="10"></path>
    <ellipse cx="643.11" cy="608.47" rx="1.55" ry="4.26" fill="#fff" stroke="#231f20" stroke-miterlimit="10"></ellipse>
    <ellipse cx="643.45" cy="607.59" rx=".95" ry="2.16" fill="#0373b1" stroke="#231f20" stroke-miterlimit="10"></ellipse>
    <path d="M784.22,455.74s7.7,.14,13.78,23.64c6.03,23.32,18.97,53.29,16.02,97.15-.05,.7-.28,1.38-.67,1.97h0c-.98,1.48-.93,3.43,.18,4.82,1.82,2.3,4.07,7.44,4.07,18.87,0,0-6.08,6.35-18.51,.41,0,0-4.86-6.89-11.62-10.4,0,0-16.75-8.65-10-10.27,0,0-5.81-4.86-1.08-8.92,0,0-3.92-4.05-3.78-16.89h0c.45-10.31-.56-20.62-2.98-30.65l-5.01-20.72c-.92-3.81-2.92-7.27-5.76-9.97-.03-.03-.06-.06-.09-.09-1.5-1.43-3.22-2.63-5.09-3.54-2.48-1.2-6.47-3.85-10.25-9.48,0,0-1.42,22.36-3.92,61.6l-.74,18.58-1.42,34.92s-1.89,2.3-18.78,.14c0,0-6.08-.27-10.4-6.35l-12.83-12.97,3.24-2.3s-3.51-5.67,.27-7.16c0,0-1.22-4.05,2.84-10l2.16-5.27v-73.63s-.61-7.5-1.82-16.55l-14.39-108.41,2.43-13.1,92.68-10.94,2.96,.95" fill="#0373b1" stroke="#231f20" stroke-miterlimit="10"></path>
    <path d="M743.42,481.68s-5.81-5.13-10.67-25.13c0,0-15.67-67.28-24.72-84.3" fill="none" stroke="#231f20" stroke-linecap="round" stroke-linejoin="round"></path>
    <path d="M690.69,579.17l2.81-3.02c.76-.81,1.97-1,2.94-.46l4.16,2.32s3.24,2.7,.14,8.11c0,0,4.05,3.11,7.43,4.46,0,0,3.78,5.67,10.4,6.35,0,0,13.28,1.79,17.65,.36l.1,1.32c.07,.9-.16,1.8-.67,2.54-1.38,1.99-5.16,5.26-15.19,5.51-1.32,.03-2.65-.06-3.96-.25-2.53-.38-8.19-.89-14.27,.85-1.56,.45-3.13,.82-4.73,1.09l-17.44,2.91s-29.49,4.96-33.59-6.44l27.62-18.41,13.82-5.33c1.06-.41,2.01-1.06,2.79-1.89Z" fill="#ff973f" stroke="#231f20" stroke-miterlimit="10"></path>
    <ellipse cx="667.77" cy="625.04" rx="12.33" ry="17.84" transform="translate(-135.71 187.99) rotate(-14.56)" fill="#231f20" stroke="#231f20" stroke-miterlimit="10"></ellipse>
    <ellipse cx="662.98" cy="626.33" rx="12.33" ry="17.84" transform="translate(-136.19 186.83) rotate(-14.56)" fill="#fff" stroke="#231f20" stroke-miterlimit="10"></ellipse>
    <ellipse cx="485.92" cy="601.37" rx="16.62" ry="17.29" fill="#fff" stroke="#231f20" stroke-miterlimit="10"></ellipse>
    <ellipse cx="485.92" cy="601.37" rx="14.05" ry="15" fill="#0373b1" stroke="#231f20" stroke-miterlimit="10"></ellipse>
    <circle cx="486.13" cy="602.39" r="2.63" fill="#fff" stroke="#231f20" stroke-miterlimit="10"></circle>
    <path d="M692.52,606.34l-238.17,3.67c-1.99,.03-3.53-1.8-3.24-3.85l4.3-30.29c.2-1.39,1.34-2.41,2.69-2.41l213.97,.27,21.77,29.81c.83,1.14,.06,2.78-1.31,2.8Z" fill="#0373b1" stroke="#231f20" stroke-miterlimit="10"></path>
    <path d="M678.06,297.06l-3.8,4.84c-.88,1.12-1.43,2.48-1.56,3.9l-.35,3.64c-.14,1.42-.81,2.73-1.91,3.64-1.21,1-2.77,2.78-3.61,5.67l-3.11,8.51,16.75,2.43-2.41-32.64Z" fill="#ff973f" stroke="#231f20" stroke-miterlimit="10"></path>
    <path d="M686.54,177.04l3.52,21.35,18.1-30.13-3.75-6.6-6.11,2.68,.05,8.93-9.07,.38c-1.75,.07-3.03,1.66-2.75,3.38Z" fill="#0373b1" stroke="#231f20" stroke-miterlimit="10"></path>
    <polygon points="703.43 140.56 713.16 154.61 740.04 129.21 738.01 124.08 728.29 120.84 713.16 120.16 703.43 140.56" fill="#faa27f" stroke="#231f20" stroke-miterlimit="10"></polygon>
    <path d="M744.39,135.64l1.46,2.89s.98,.3,2.62,.97c15.33,6.28,26.68,19.58,30.57,35.69,.36,1.48,.69,3.04,.99,4.68l18.1,149.96-115.1,15s-5.67-15.94-5-49.04c0,0,3.92-93.22,17.7-116.05l3.49-8.17c.25-.59,.88-.92,1.51-.8l.95,.19-1.35-5.81,9.19,.95,20.8-26.88,14.08-3.57Z" fill="#ff973f" stroke="#231f20" stroke-miterlimit="10"></path>
    <path d="M699.75,335.61s-.23,6.6-6.11,13.15c-.64,.71-1.21,1.47-1.73,2.27-.98,1.5-2.45,3.99-3.76,7.12-.31,.75-.59,1.51-.85,2.28-.43,1.31-1.63,4.34-3.48,4.79-.44,.11-.9,.03-1.3-.19-1.1-.58-4.14-2.44-3.14-4.67l1.55-3.33,4.8-15.58,7.84-6.62,6.19,.78Z" fill="#faa27f" stroke="#231f20" stroke-miterlimit="10"></path>
    <path d="M699.03,604.13l-247.66,3.67c-2.07,.03-3.67-1.8-3.37-3.85l4.47-30.29c.2-1.39,1.4-2.41,2.8-2.41l222.49,.27,22.64,29.81c.87,1.14,.07,2.78-1.36,2.8Z" fill="#fff" stroke="#231f20" stroke-miterlimit="10"></path>
    <path d="M504.03,604.35h-49.3c-.93,0-1.66-.82-1.54-1.75l4.06-32.02c.1-.78,.76-1.36,1.54-1.36h45.24v35.13Z" fill="#e3e4e5" stroke="#231f20" stroke-miterlimit="10"></path>
    <path d="M669.38,414.54l-1.84,10.74c-.2,1.18-.3,2.38-.3,3.58v143.83h8.5l-.13-143.64c0-1.12,.09-2.23,.26-3.33l1.49-9.42-7.97-1.76Z" fill="#fff" stroke="#231f20" stroke-miterlimit="10"></path>
    <path d="M667.9,415.75l10.4,2.7,6.35-29.18s5.81-26.48-7.97-27.02l-11.72,.57v10.11h5.65c3,0,5.26,2.74,4.67,5.68l-7.38,37.13Z" fill="#0373b1" stroke="#231f20" stroke-miterlimit="10"></path>
    <path d="M667.22,327.8l-2.25,3.05-.02,31.97,2.8-.23s3.32-13.3,3.96-21.48c0,0-.18-2.06,1.65-3.36l7.57-7.99-13.71-1.96Z" fill="#faa27f" stroke="#231f20" stroke-miterlimit="10"></path>
    <ellipse cx="662.83" cy="626.26" rx="10.34" ry="15.23" transform="translate(-136.18 186.79) rotate(-14.56)" fill="#0373b1" stroke="#231f20" stroke-miterlimit="10"></ellipse>
    <path d="M651,606.99l8.94,22.94c.32,.81,1.1,1.35,1.97,1.35h0c1.2,0,2.16-1,2.11-2.2l-.89-22.25-12.14,.16Z" fill="#e3e4e5" stroke="#231f20" stroke-miterlimit="10"></path>
    <rect x="685.12" y="80.65" width="35.26" height="63.36" rx="16.91" ry="16.91" fill="#faa27f" stroke="#231f20" stroke-miterlimit="10"></rect>
    <path d="M740.99,127.32l2.57,5.13c4.42-1.59,7.52-3.6,9.68-5.72,4.47-4.39,5.66-11.13,3.11-16.86l-7.93-17.82c-1.54-3.78-3.14-6.93-4.55-9.38-3.96-6.94-10.57-12-18.34-13.85-13.79-3.27-27.03,2.63-27.03,2.63-16.62,9.19-13.24,25.53-13.24,25.53,3.89-5.61,11.72-13.11,14.01-15.27,.56-.52,1.26-.87,2.02-.95,3.39-.36,.63,5.02-.73,7.37-.69,1.19-1.07,2.55-1.06,3.93,.11,9.01,15.78,6.78,15.78,6.78l3.63,11.58c.54,4.91-2.37,7.47-4.82,8.73-1.71,.88-2.05,3.19-.64,4.5,3.39,3.16,11.05,6.93,27.53,3.65" fill="#231f20" stroke="#231f20" stroke-miterlimit="10"></path>
    <ellipse cx="720.86" cy="101.99" rx="6.08" ry="8.58" fill="#faa27f" stroke="#231f20" stroke-miterlimit="10"></ellipse>
    <path d="M700.32,165.15l10.67,10.67s15.13-33.64,34.31-40.12l-4.32-8.38s-5.4-.95-14.05,9.19c0,0-18.24,22.56-26.61,28.64Z" fill="#0373b1" stroke="#231f20" stroke-miterlimit="10"></path>
    <path d="M685.6,324.97l-12.77,12.65c-.91,.9-1.49,2.09-1.65,3.36-.55,4.52-2.01,15.78-3.49,22.14-.29,1.26-.25,2.57,.11,3.81l1.59,5.45s.41,1.22,1.49,.27l1.22,2.55c.28,.59,.93,.95,1.58,.81,.3-.06,.64-.22,.99-.53,0,0-.14-1.62-.41-2.7,0,0,4.19-18.37,6.75-21.21,0,0-.54,2.84-.14,4.73,0,0-.61,5.21-3.54,9.09-.44,.58-.44,1.39,.03,1.94,.42,.49,1.15,.78,2.41,.13,.86-.44,1.57-1.14,2.05-1.99l.53-.94s4.46-9.32,5-15.94c0,0,1.08-1.22,2.16-3.92,0,0,11.08-7.57,12.56-13.1l-16.48-6.62Z" fill="#faa27f" stroke="#231f20" stroke-miterlimit="10"></path>
    <path d="M681,351.58l-.41-6.21s-.41-3.65,.14-5.54" fill="none" stroke="#231f20" stroke-linecap="round" stroke-linejoin="round"></path>
    <path d="M670.87,372.66s-.27-.54,0-2.97l3.51-24.32" fill="none" stroke="#231f20" stroke-linecap="round" stroke-linejoin="round"></path>
    <path d="M748.82,150.83s-28.62-1.68-29.06,35.51c-.02,1.52-.3,3.03-.82,4.47-1.68,4.64-5.11,17.49-2.81,40.67,0,0-16.35,53.63-24.18,71.74l-9.73,20.4s10,7.03,21.89,9.32c0,0,7.97-10.54,16.48-12.97,0,0,13.51-2.16,11.62-14.32,0,0-.95-3.78,2.84-8.65l8.92-14.46s4.19-1.22,5.4-15.4c0,0,9.73-10.54,17.7-40.26l8.02-40.35c1.13-5.68,.54-11.59-1.81-16.88-3.11-7.01-9.86-14.98-24.45-18.83Z" fill="#ff973f" stroke="#231f20" stroke-miterlimit="10"></path>
    <path d="M748.69,162.31c0,.68-4.32,21.21-32.56,69.17" fill="none" stroke="#231f20" stroke-linecap="round" stroke-linejoin="round"></path>
    <polygon points="667.22 604.08 488.63 606.24 494.3 421.02 667.22 421.02 667.22 604.08" fill="#fff" stroke="#231f20" stroke-miterlimit="10"></polygon>
    <polygon points="494.3 421.02 491.6 412.51 648.98 413.46 667.22 421.02 494.3 421.02" fill="#e3e4e5" stroke="#231f20" stroke-miterlimit="10"></polygon>
    <polygon points="491.6 412.51 487 567.2 488.63 606.24 494.3 421.02 491.6 412.51" fill="#ced0d1" stroke="#231f20" stroke-miterlimit="10"></polygon>
    <path d="M667.29,598.94h25.06s2.28-18.39-13.43-28.01c-.96-.59-2.06-.9-3.19-.9h-5.93c-1.46,0-2.65,1.19-2.64,2.65l.12,26.26Z" fill="#e3e4e5" stroke="#231f20" stroke-miterlimit="10"></path>
    <circle cx="672.42" cy="573.75" r="2.36" fill="#fff" stroke="#231f20" stroke-miterlimit="10"></circle>
    <path d="M680.07,594.26c-1.16,.25-2.31-.49-2.55-1.66l-.16-.75-1.68-7.86c-.25-1.16,.49-2.31,1.66-2.55,.05-.01,.1-.02,.15-.03,.1-.02,.2-.02,.31-.02,.99,0,1.89,.69,2.1,1.71l1.83,8.6c.25,1.16-.49,2.31-1.66,2.56Z" fill="#fff" stroke="#231f20" stroke-miterlimit="10"></path>
    <path d="M677.5,591.82s-.1,.02-.15,.03l-1.68-7.86c-.25-1.16,.49-2.31,1.66-2.55,.05-.01,.1-.02,.15-.03l1.68,7.85c.25,1.16-.49,2.31-1.66,2.56Z" fill="#e3e4e5" stroke="#231f20" stroke-miterlimit="10"></path>
    <path d="M676.33,581.92l4.25,4.94-2.39,2.16-1.93-2.2-.57-2.83s-.25-1.26,.65-2.07Z" fill="#fff" stroke="#231f20" stroke-miterlimit="10"></path>
    <rect x="677.63" y="585.79" width="3.2" height="4.05" rx="1.6" ry="1.6" transform="translate(-216.71 652.45) rotate(-45)" fill="#fff" stroke="#231f20" stroke-miterlimit="10"></rect>
    <polygon points="664.93 418.86 545.64 418.86 548.2 315.24 664.93 317.67 664.93 418.86" fill="#fff" stroke="#231f20" stroke-miterlimit="10"></polygon>
    <polygon points="548.2 315.24 536.72 326.72 534.96 413.86 545.64 418.86 548.2 315.24" fill="#ced0d1" stroke="#231f20" stroke-miterlimit="10"></polygon>
    <ellipse cx="486.19" cy="626.37" rx="16.62" ry="17.29" fill="#231f20" stroke="#231f20" stroke-miterlimit="10"></ellipse>
    <ellipse cx="485.79" cy="627.99" rx="16.62" ry="17.29" fill="#fff" stroke="#231f20" stroke-miterlimit="10"></ellipse>
    <ellipse cx="485.79" cy="627.99" rx="14.05" ry="15" fill="#0373b1" stroke="#231f20" stroke-miterlimit="10"></ellipse>
    <path d="M478.14,609.67l.9,10.27,3.51,10.32c.48,1.42,1.82,2.38,3.33,2.38h0c1.49,0,2.82-.94,3.31-2.34l3.9-11.03,1.76-9.86-16.7,.27Z" fill="#e3e4e5" stroke="#231f20" stroke-miterlimit="10"></path>
    <circle cx="485.99" cy="630" r="2.63" fill="#fff" stroke="#231f20" stroke-miterlimit="10"></circle>
    <path d="M497.52,609.4h10.4v7.54c0,.83-.68,1.51-1.51,1.51h-7.39c-.83,0-1.51-.68-1.51-1.51v-7.54h0Z" fill="#e3e4e5" stroke="#231f20" stroke-miterlimit="10"></path>
    <circle cx="502.58" cy="613.66" r="3.31" fill="#fff" stroke="#231f20" stroke-miterlimit="10"></circle>
    <path d="M640.47,606.97h10.67v7.41c0,1.28-1.04,2.31-2.31,2.31h-6.04c-1.28,0-2.31-1.04-2.31-2.31v-7.41h0Z" fill="#e3e4e5" stroke="#231f20" stroke-miterlimit="10"></path>
    <circle cx="645.74" cy="611.43" r="3.38" fill="#fff" stroke="#231f20" stroke-miterlimit="10"></circle>
    <ellipse cx="700.12" cy="85.24" rx="12.29" ry="8.92" fill="#231f20" stroke="#231f20" stroke-miterlimit="10"></ellipse>
  </g>
  <g>
    <rect x="81.15" y="552.65" width="330.66" height="50.21" fill="#fff" stroke="#231f20" stroke-miterlimit="10"></rect>
    <rect x="118.8" y="560.44" width="108.2" height="34.62" fill="none" stroke="#231f20" stroke-linecap="round" stroke-linejoin="round"></rect>
    <rect x="266.82" y="560.44" width="108.2" height="34.62" fill="none" stroke="#231f20" stroke-linecap="round" stroke-linejoin="round"></rect>
    <line x1="411.17" y1="560.55" x2="81.03" y2="560.55" fill="none" stroke="#231f20" stroke-linecap="round" stroke-linejoin="round"></line>
    <line x1="411.28" y1="595.17" x2="81.15" y2="595.17" fill="none" stroke="#231f20" stroke-linecap="round" stroke-linejoin="round"></line>
    <line x1="118.62" y1="569.21" x2="81.03" y2="569.21" fill="none" stroke="#231f20" stroke-linecap="round" stroke-linejoin="round"></line>
    <line x1="266.85" y1="569.21" x2="226.79" y2="569.21" fill="none" stroke="#231f20" stroke-linecap="round" stroke-linejoin="round"></line>
    <line x1="411.17" y1="569.21" x2="375.33" y2="569.21" fill="none" stroke="#231f20" stroke-linecap="round" stroke-linejoin="round"></line>
    <rect x="90.24" y="436.23" width="156.68" height="115.99" fill="#ff973f" stroke="#231f20" stroke-miterlimit="10"></rect>
    <rect x="246.91" y="436.23" width="156.68" height="115.99" fill="#ff973f" stroke="#231f20" stroke-miterlimit="10"></rect>
    <rect x="90.24" y="320.24" width="156.68" height="115.99" fill="#ff973f" stroke="#231f20" stroke-miterlimit="10"></rect>
    <rect x="246.91" y="320.24" width="156.68" height="115.99" fill="#ff973f" stroke="#231f20" stroke-miterlimit="10"></rect>
    <rect x="200.17" y="331.49" width="33.76" height="23.37" fill="#fff" stroke="#231f20" stroke-miterlimit="10"></rect>
    <rect x="356.84" y="331.49" width="33.76" height="23.37" fill="#fff" stroke="#231f20" stroke-miterlimit="10"></rect>
    <rect x="201.9" y="447.48" width="33.76" height="23.37" fill="#fff" stroke="#231f20" stroke-miterlimit="10"></rect>
    <rect x="188.05" y="411.99" width="45.88" height="12.12" fill="#fff" stroke="#231f20" stroke-miterlimit="10"></rect>
    <rect x="344.73" y="411.99" width="45.88" height="12.12" fill="#fff" stroke="#231f20" stroke-miterlimit="10"></rect>
    <rect x="189.78" y="527.98" width="45.88" height="12.12" fill="#fff" stroke="#231f20" stroke-miterlimit="10"></rect>
    <rect x="358.58" y="447.48" width="33.76" height="23.37" fill="#fff" stroke="#231f20" stroke-miterlimit="10"></rect>
    <rect x="346.46" y="527.98" width="45.88" height="12.12" fill="#fff" stroke="#231f20" stroke-miterlimit="10"></rect>
  </g>
</svg>
