<?xml version="1.0" encoding="UTF-8"?>
<svg xmlns="http://www.w3.org/2000/svg" id="a" width="865.76" height="682.89" viewBox="0 0 865.76 682.89">
  <polygon points="641.57 194.41 513.15 194.41 513.15 63.99 641.57 61.88 641.57 194.41" fill="#e3e4e5" stroke="#231f20" stroke-miterlimit="10"></polygon>
  <polygon points="700.13 194.41 641.57 194.41 641.57 61.88 700.13 72.15 700.13 194.41" fill="#e3e4e5" stroke="#231f20" stroke-miterlimit="10"></polygon>
  <rect x="574.79" y="194.41" width="203.42" height="154.11" fill="#e3e4e5" stroke="#231f20" stroke-miterlimit="10"></rect>
  <polygon points="540.88 172.84 410.41 172.84 410.41 36.2 540.88 40.31 540.88 172.84" fill="#e3e4e5" stroke="#231f20" stroke-miterlimit="10"></polygon>
  <polygon points="410.41 36.2 410.41 172.84 352.87 172.84 352.87 47.5 377.53 42.66 386.78 40.84 410.41 36.2" fill="#e3e4e5" stroke="#231f20" stroke-miterlimit="10"></polygon>
  <polygon points="386.78 40.84 386.78 69.07 377.53 70.1 377.53 42.66 386.78 40.84" fill="#ff973f" stroke="#231f20" stroke-miterlimit="10"></polygon>
  <polygon points="220.34 297.15 475.13 299.21 508.01 302.29 279.93 302.29 220.34 297.15" fill="#fff" stroke="#231f20" stroke-miterlimit="10"></polygon>
  <rect x="267.6" y="168.73" width="90.41" height="134.07" fill="#e3e4e5" stroke="#231f20" stroke-miterlimit="10"></rect>
  <rect x="358.01" y="168.73" width="166.44" height="134.07" fill="#e3e4e5" stroke="#231f20" stroke-miterlimit="10"></rect>
  <rect x="516.23" y="194.41" width="203.42" height="154.11" fill="#fff" stroke="#231f20" stroke-miterlimit="10"></rect>
  <rect x="487.46" y="262.22" width="153.08" height="8.22" fill="#e3e4e5" stroke="#231f20" stroke-miterlimit="10"></rect>
  <polygon points="831.12 467.7 773.07 480.03 773.07 324.89 831.12 319.75 831.12 467.7" fill="#e3e4e5" stroke="#231f20" stroke-miterlimit="10"></polygon>
  <rect x="487.46" y="266.33" width="153.08" height="114.04" fill="#e3e4e5" stroke="#231f20" stroke-miterlimit="10"></rect>
  <rect x="527.53" y="324.89" width="245.54" height="155.13" fill="#e3e4e5" stroke="#231f20" stroke-miterlimit="10"></rect>
  <polygon points="527.53 324.89 594.31 319.75 831.12 319.75 773.07 324.89 527.53 324.89" fill="#fff" stroke="#231f20" stroke-miterlimit="10"></polygon>
  <rect x="279.93" y="302.29" width="228.08" height="169.52" fill="#e3e4e5" stroke="#231f20" stroke-miterlimit="10"></rect>
  <polygon points="279.93 302.29 220.34 297.15 221.37 460.51 279.93 471.81 279.93 302.29" fill="#e3e4e5" stroke="#231f20" stroke-miterlimit="10"></polygon>
  <rect x="26.94" y="440.85" width="216.06" height="125.55" fill="#fff" stroke="#231f20" stroke-miterlimit="10"></rect>
  <polygon points="26.94 440.85 35.7 432.09 235.21 432.09 243 440.85 26.94 440.85" fill="#e3e4e5" stroke="#231f20" stroke-miterlimit="10"></polygon>
  <polygon points="126.41 432.14 124.26 440.85 124.26 471.02 145.67 471.02 145.67 440.83 142.75 432.09 126.41 432.14" fill="#ff973f" stroke="#231f20" stroke-miterlimit="10"></polygon>
  <rect x="144.7" y="498.27" width="114.84" height="82.73" fill="#e3e4e5" stroke="#231f20" stroke-miterlimit="10"></rect>
  <polygon points="259.54 498.27 144.7 498.27 152.49 485.62 252.73 485.62 259.54 498.27" fill="#e3e4e5" stroke="#231f20" stroke-miterlimit="10"></polygon>
  <g>
    <path d="M347.85,394.44h0c.53,0,.97,.43,.97,.97v3.38h-1.93v-3.38c0-.53,.43-.97,.97-.97Z" fill="#fff" stroke="#231f20" stroke-miterlimit="10"></path>
    <polygon points="380.08 630.19 396.2 630.51 402.96 588.29 391.55 588.21 378.79 585.88 361.39 595.54 370.25 628.1 380.08 630.19" fill="#faa27f" stroke="#231f20" stroke-miterlimit="10"></polygon>
    <path d="M490.46,624.07l10.31,10.31s1.77-9.83,7.41-14.99l10.12-10.14-27.85,14.81Z" fill="#0373b1" stroke="#231f20" stroke-miterlimit="10"></path>
    <path d="M500.78,634.38s3.65,.12,10.01-2.18c1.94-.7,3.98-1.11,6.04-1.23,4.95-.27,14.77-1.88,19.58-10.05l-.98-.39s-6.46-1.79-8.23-9.04c0,0-.97-4.03,.64-7.41l-9.53,5.17-10.12,10.14s-5.16,4.19-7.41,14.99Z" fill="#0373b1" stroke="#231f20" stroke-miterlimit="10"></path>
    <path d="M536.41,620.93l-32.84,5.41s1.23-3.72,4.62-6.94l10.12-10.14,9.53-5.17,10.15,14.83-1.59,2.02Z" fill="#faa27f" stroke="#231f20" stroke-miterlimit="10"></path>
    <path d="M647.26,483.39l-162.43-24.01c-7.39-12.44-14.22-30.71-19.39-46.63-5.88-18.09-9.62-33.14-9.62-33.14-21.91,2.74-29.97-2.41-32.51-4.89-.75-.73-1.01-1.23-1.01-1.23l4.83-19.82c2.74-27.39,13.21-39.8,13.21-39.8,17.89-28.04,43.42-31.51,43.42-31.51l50.53,14.59,40.45-27.72c2.93-2.41,4.91-.67,5.94,.85,1,1.48,2.19,2.82,3.61,3.91,4.44,3.42,7.69,4.43,7.69,4.43,29.49,9.02,42.06,22.4,42.06,22.4l15.63,96.2c-5.96,25.3-2.42,86.37-2.42,86.37Z" fill="#ff973f" stroke="#231f20" stroke-miterlimit="10"></path>
    <path d="M604.84,282.91s-9.31-3.53-12.86-4.5c0,0-4.03-1.93-9.51,6.45,0,0-5.96,8.86-21.43,41.09,0,0-11.92,20.47-15.63,44.64,0,0-18.37-2.9-29.65-7.09,0,0-6.12-1.77-14.5-6.45,0,0-1.62-1.02-4.37-1.55-.08-6.51-.16-46.33,9.33-61.89,0,0-6.25-1.29-12.53-3.89,0,0-11.12,23.18-10.07,68.11-.39,.11-.88-.58-1.53-.46l-1.61,16.11s-4.51,20.79-2.58,38.84c0,0,2.58,16.92,5.64,27.72,0,0,2.48,12.77-.15,24.84-.68,3.1-3.18,5.48-6.32,5.92-2.22,.31-4.73,1.18-6.26,3.4l-4.58,5.79,60.18-.64,58.33-27.56-10.31-25.94s-10.96-13.37-11.92-52.69h-1.93s23.78-88.81,44.28-90.25Z" fill="#0373b1" stroke="#231f20" stroke-miterlimit="10"></path>
    <path d="M455.82,379.61l-7.25-25.94s-8.54-25.3,2.42-44.15" fill="none" stroke="#231f20" stroke-linecap="round" stroke-linejoin="round"></path>
    <path d="M465.44,412.75l-15.1,26.81c-3.51,6.57-8.46,11.15-11.09,13.29-1.25,1.02-2.43,2.12-3.53,3.31-8.24,8.88-17.94,14.5-17.94,14.5-9.67,3.06-47.05-2.74-47.05-2.74l-10.47-5.8c-1.13,1.29-2.9,1.13-2.9,1.13l-7.25-1.45-.16-8.86v-32.71c9.35,4.51,16.6,12.25,16.6,12.25,4.03-1.77,8.7-2.42,8.7-2.42,9.02-1.29,12.89-4.67,12.89-4.67,10.96-10.64,18.53-12.41,18.53-12.41l16.64-38.25c2.53,2.48,10.59,7.63,32.51,4.89,0,0,3.74,15.05,9.62,33.14Z" fill="#faa27f" stroke="#231f20" stroke-miterlimit="10"></path>
    <path d="M406.67,412.97s10.64,4.19,19.66,18.53" fill="none" stroke="#231f20" stroke-linecap="round" stroke-linejoin="round"></path>
    <path d="M359.94,432.63s-.32,.97-4.19,4.67c0,0-.43,.49-.91,1.05-.51,.6-1.18,1.05-1.93,1.28-1.22,.37-3.04,1.25-3.01,3.23v7.68s2.46,3.51,7.94,.29l3.22-2.42s2.94,.54,5.91-1.18c2.36-1.36,3.89-3.86,3.86-6.58-.02-1.44-.45-3.06-1.87-4.48" fill="#faa27f" stroke="#231f20" stroke-linecap="round" stroke-linejoin="round"></path>
    <path d="M353.06,452.19s7.72,7.24,15,3.23c2.87-1.58,4.84-4.44,5.34-7.67,.57-3.66-.22-9.19-6.85-15.28" fill="none" stroke="#231f20" stroke-linecap="round" stroke-linejoin="round"></path>
    <path d="M360.26,462.12s2.35-1.87,4.24-5.53" fill="none" stroke="#231f20" stroke-linecap="round" stroke-linejoin="round"></path>
    <path d="M392.17,579.59l-57.21-35.29s-27.23-19.34-5.96-53.82c0,0,7.25-21.27,27.23-21.59l95.07,26.27,68.24,9.03,9.27,17.88-42.22,34.16-73.8,22.4-20.63,.97Z" fill="#0373b1" stroke="#231f20" stroke-miterlimit="10"></path>
    <path d="M394.28,576.79l-6.67,5.37h-.02c-.37-.1-5.36-1.18-23.62,1.14-14.02,1.78-24.63-1.52-29.23-3.37-4.02-1.62-8.21-2.8-12.5-3.45-8.38-1.26-20.78-1.55-32.24,4.19-8.79,4.41-15.11,12.64-16.76,22.33-.55,3.22-.62,6.74,.26,10.31,.43,1.78,1.31,3.42,2.56,4.76,2.99,3.18,10.2,8.79,25.71,12.11,0,0-31.26,1.61-33.2-21.75,0,0-1.77-21.75,17.4-32.87,0,0,19.64-11.05,39.72-6.29,3.28,.78,6.41,2.09,9.3,3.84,2.05,1.24,4.64,2.98,7.22,5.17,1.24,1.06,2.68,1.88,4.24,2.36,2.74,.85,7.28,1.63,13.17,.39l11.44-3.87s8.22-4.35,13.86-3.55l9.36,3.16Z" fill="#fff" stroke="#231f20" stroke-miterlimit="10"></path>
    <path d="M372.02,611.66c-.32,14.34,8.06,18.53,8.06,18.53-17.27,2.07-37.98,.83-43.53,.43-.97-.07-1.95-.07-2.92-.02-24.43,1.44-31.86-.41-31.86-.41-15.51-3.32-22.72-8.93-25.71-12.11-1.25-1.33-2.13-2.98-2.56-4.76-.87-3.57-.81-7.09-.26-10.31,1.65-9.69,7.97-17.93,16.76-22.33,11.46-5.74,23.86-5.45,32.24-4.19,4.29,.64,8.48,1.82,12.5,3.45,4.6,1.86,15.21,5.16,29.23,3.37,18.25-2.32,23.24-1.23,23.62-1.14h.02c1.4,3.06,3.95,6.06,3.95,6.06l-6.64,3.14c-11.28,6.28-12.89,20.3-12.89,20.3Z" fill="#ff973f" stroke="#231f20" stroke-miterlimit="10"></path>
    <polygon points="264.7 441.33 325.29 458.25 403.93 480.49 403.34 482.06 325.29 459.86 264.38 442.78 264.7 441.33" fill="#e3e4e5" stroke="#231f20" stroke-miterlimit="10"></polygon>
    <polygon points="264.7 441.33 393.62 471.14 399.1 473.88 404.57 478.88 403.93 480.49 264.7 441.33" fill="#fff" stroke="#231f20" stroke-miterlimit="10"></polygon>
    <path d="M345.29,398.87l.31,51.48,.98,6.7c.09,.59,.6,1.04,1.2,1.04h0c.6,0,1.11-.44,1.2-1.04l.93-6.5,.04-51.68c0-1.29-1.04-2.33-2.33-2.33h0c-1.29,0-2.34,1.05-2.33,2.34Z" fill="#ff973f" stroke="#231f20" stroke-miterlimit="10"></path>
    <polyline points="349.94 398.86 351.4 398.95 351.4 415.22" fill="none" stroke="#231f20" stroke-linecap="round" stroke-linejoin="round"></polyline>
    <path d="M347.37,457.44v2.33c0,.22,.18,.41,.4,.41h0c.22,0,.4-.18,.41-.4l.02-2.34h-.83Z" fill="#fff" stroke="#231f20" stroke-miterlimit="10"></path>
    <path d="M507.53,293.11v5.77s8.59,8.58,24.67,4.1c4.78-1.33,9.25-3.59,13.21-6.57,5.79-4.36,17.32-13.7,29.33-27.18,0,0-6.45-2.58-9.35-7.9,0,0-4.26-7.9-3.58-27.31l-17.37,8.3-36.91,50.79Z" fill="#faa27f" stroke="#231f20" stroke-miterlimit="10"></path>
    <rect x="469.26" y="182.33" width="75.34" height="113.02" rx="36.99" ry="36.99" transform="translate(-35.5 98.16) rotate(-10.69)" fill="#faa27f" stroke="#231f20" stroke-miterlimit="10"></rect>
    <path d="M515.28,212.51s0,11.12,11.92,17.4c0,0,9.35,2.26,9.99,11.44l24.51-2.43s2.98-10.57,3.01-21.95l-14.79-11.87-34.65,7.41Z" fill="#231f20" stroke="#231f20" stroke-miterlimit="10"></path>
    <path d="M435.3,215.58s3.76,5.31,13.27,2.89c0,0,6.72-1.98,11.66-4.13l-11.34-6.18-11.28-2.09s-4.83,.32-4.83,3.87,2.52,5.65,2.52,5.65Z" fill="#ff973f" stroke="#231f20" stroke-miterlimit="10"></path>
    <path d="M566.23,214.53c0,1.52-1.25,2.74-2.77,2.68-3.04-.12-8.7-.71-17.47-2.98-4.79-1.24-9.74-1.81-14.69-1.76-8.03,.09-12.47-.61-12.47-.61-7.44,2.84-14.39,4.47-20.69,5.29-21.93,2.84-36.03-4.16-36.03-4.16-16.97-7.29-24.05-7.87-25.6-7.9-.06,0-.07-.09-.01-.11l29.65-10.2s13.86-49.15,60.27-39.16c0,0,39.75,6.7,39.83,58.9Z" fill="#ff973f" stroke="#231f20" stroke-miterlimit="10"></path>
    <path d="M466.13,194.78s2.59-1.22,17.73,4.06c.79,.28,1.57,.57,2.35,.89,4.4,1.82,21.46,8.78,32.62,12.13" fill="none" stroke="#231f20" stroke-linecap="round" stroke-linejoin="round"></path>
    <path d="M498.17,217.17c-8.41,2.73-16.08,1.94-16.08,1.94-12.82-.58-34.38-9-38.83-10.79-.8-.32-1.61-.59-2.44-.8-5.98-1.49-7.07,1.12-7.07,1.12-1.59,3.98,1.69,7.01,1.77,7.09-.12-.09-4.8-3.6-2.58-8.22,0,0,1.29-2.74,3.71-2.42,0,0,5.96-.48,25.46,7.9,0,0,14.1,7,36.03,4.16,.02,.01,.03,.02,.03,.02Z" fill="#fff" stroke="#231f20" stroke-miterlimit="10"></path>
    <ellipse cx="551.38" cy="233.78" rx="16.76" ry="10.31" transform="translate(262.89 758.6) rotate(-84.18)" fill="#faa27f" stroke="#231f20" stroke-miterlimit="10"></ellipse>
    <path d="M583.12,389.76l72.68,7.9s.52-13.7,1-29.17c0,0,.07-11.39-1.39-21.68-.42-2.93-.86-5.86-1.23-8.8-1.48-11.65-7.65-41.73-31.74-39.13,0,0-38.84-.32-38.67,47.05l-.64,43.83Z" fill="#ff973f" stroke="#231f20" stroke-miterlimit="10"></path>
    <path d="M583.12,389.76l-8.7,36.1s-2.9,9.02-.16,19.5c0,0-15.63,8.38-38.84,16.28,0,0-38.35,14.83-58.33,15.47,0,0-5.32,.81-11.92,2.74,0,0-7.57,1.77-16.76-2.26,0,0-12.73-8.38-23.85-9.35h-15.82c-.52,0-1.03,.07-1.53,.21l-6.51,1.84c-.84,.24-1.72,.3-2.59,.17l-4.71-.69c-1.31-.19-2.62,.44-3.27,1.6-.74,1.32-1.14,3.25,.59,5.4l9.02,2.58-2.42,.32-1.45,.32s-1.91,.48-2.38,4.08c-.2,1.54,.09,3.11,.85,4.47,.15,.26,.31,.51,.48,.7,.06,.07,.11,.15,.15,.23,.32,.66,1.95,3.44,6.22,2.44,0,0-.64,5.96,7.57,6.77,0,0-2.38,1.85-2.11,5.55,.07,.9,.39,1.77,.94,2.49,.88,1.13,2.68,2.79,6.16,4.05,0,0-1.66,.79-2.38,2.76s-.06,4.16,1.52,5.54c1.3,1.12,3.51,2.31,7.22,2.71,1.1,.12,2.2,.31,3.28,.56,3.16,.75,10.83,1.94,21.14-.77,2.36-.62,4.64-1.52,6.81-2.63s5.69-2.68,8.33-2.68l56.56-3.87,95.88-27.88s29.44-47.63,35.67-87.79l-64.68-6.96Z" fill="#faa27f" stroke="#231f20" stroke-miterlimit="10"></path>
    <path d="M415.53,485.32s.48,3.22-2.9,4.19l-11.44,2.42" fill="none" stroke="#231f20" stroke-linecap="round" stroke-linejoin="round"></path>
    <path d="M408.76,498.7s1.93,.64,2.74,1.13c0,0,1.61,.81,4.35,.16" fill="none" stroke="#231f20" stroke-linecap="round" stroke-linejoin="round"></path>
    <line x1="413.76" y1="510.78" x2="418.27" y2="512.07" fill="none" stroke="#231f20" stroke-linecap="round" stroke-linejoin="round"></line>
    <path d="M399.74,479.36s5.96-1.93,11.6-3.55l14.83-4.19" fill="none" stroke="#231f20" stroke-linecap="round" stroke-linejoin="round"></path>
    <path d="M393.29,633.74c14.18,.48,26.91,0,26.91,0,12.89,0,26.59-1.45,26.59-1.45,5.49,1.49,16.42,.02,24.67-1.49,6.5-1.19,12.78-3.38,18.62-6.49l55.46-29.65c2.6-1.39,5.66-1.68,8.48-.81l48.45,15.07c18.53,3.38,32.07-16.28,32.07-16.28,18.71-28.54,12.77-56.38,10.52-64.22-.42-1.46-.48-3-.19-4.5,1.87-9.66,.55-16.74-.6-20.51-.63-2.08-.52-4.32,.28-6.34,2.28-5.76,3.84-13.21,3.84-13.21l-9.19-12.09c-3.71-5.16-8.38-3.55-8.38-3.55-5.32,.81-8.62-1.81-8.62-1.81-1.21,2.87-10.07,18.08-10.07,18.08-39.64-29.01-74.45-.81-74.45-.81-6.5,1.75-9.63,7.61-11.04,11.59-.88,2.48-2.51,4.62-4.63,6.18-6.65,4.92-14.3,13.49-14.3,13.49l-5.61,5.49c-6.53,6.39-14.07,11.66-22.33,15.59l-90.64,43.11c-1.53,.73-2.05,2.66-1.07,4.06l3.49,4.99c.7,1.29,1.07,2.73,1.07,4.2l.67,41.33Z" fill="#0373b1" stroke="#231f20" stroke-miterlimit="10"></path>
    <path d="M345.43,418.61s-6.58-2.51-8.77,2.21c-.06,.13-.12,.27-.19,.4l-1.18,2.22s-.81,1.77-3.38,1.93c0,0-5.16,.97-5,4.51l.16,4.51s-.64,1.29-1.93,2.58c0,0-1.77,1.77-1.61,5.32l.32,4.67s.32,2.42,1.29,4.19c0,0-.48,4.19,1.61,5.32l19.66,5.64s1.93,1.45,3.71,.64c0,0,5.16,1.77,6.61-1.61,0,0,.1-.2,.21-.55,.75-2.46-.58-5.08-3-5.97l-2.85-1.06-3.55-2.9s3.71-3.55,1.45-7.57l-3.06-4.83s.32-2.74-.32-3.55l-.16-16.11Z" fill="#faa27f" stroke="#231f20" stroke-linecap="round" stroke-linejoin="round"></path>
    <line x1="326.58" y1="453.74" x2="341.71" y2="460.72" fill="none" stroke="#231f20" stroke-linecap="round" stroke-linejoin="round"></line>
    <path d="M328.35,436.5l1.22,8.05c.25,1.67,1.07,3.21,2.32,4.34l14.51,13.23" fill="none" stroke="#231f20" stroke-linecap="round" stroke-linejoin="round"></path>
    <path d="M332.38,433.11s.48,3.06,2.42,5.96l7.25,9.83s2.74,4.03,5.48,1.77" fill="none" stroke="#231f20" stroke-linecap="round" stroke-linejoin="round"></path>
    <path d="M343.34,430.37s1.61,2.26,2.26,4.35" fill="none" stroke="#231f20" stroke-linecap="round" stroke-linejoin="round"></path>
    <path d="M350.11,462.76s3.22-1.45,2.74-5.8c0,0-.16-1.77-1.77-3.38" fill="none" stroke="#231f20" stroke-linecap="round" stroke-linejoin="round"></path>
    <path d="M496.6,385.21s18.11,10.13,46.16,11.88l-1.16,17.97c-.25,3.84-2.47,7.28-5.87,9.09l-13.1,6.95c-4.25,2.26-9.48,1.51-12.93-1.84l-11.21-10.89c-2.31-2.25-3.53-5.39-3.34-8.61l1.45-24.53Z" fill="#ff973f" stroke="#231f20" stroke-miterlimit="10"></path>
    <path d="M580.87,578.79s-10.34,.24-17.21,6.69c-.97,.91-2.13,1.57-3.39,1.99-2.4,.8-6.57,2.39-10.66,5.02l-21.75,11.6s-.1,.22-.24,.63c-2.29,6.52,1.26,13.66,7.83,15.83,2.47,.82,6.19,2.08,11.06,3.83,1.15,.41,2.15,1.14,2.89,2.11,3.8,4.97,17.41,20.95,34.19,19.69l-2.7-67.39Z" fill="#ff973f" stroke="#231f20" stroke-miterlimit="10"></path>
    <path d="M616.48,497.09s26.59,44.8-27.07,88.31" fill="none" stroke="#231f20" stroke-linecap="round" stroke-linejoin="round"></path>
    <path d="M579.09,579.11s6.42-3.34,11.82,4.7c.83,1.23,1.37,2.62,1.69,4.06,.21,.93,.71,1.69,1.95-.23,0,0,4.37-7.97,5.33,2.22,0,0-4.52,7.61-5.01,7.93s-13.86-.16-13.86-.16l-1.93-18.53Z" fill="#ff973f" stroke="#231f20" stroke-miterlimit="10"></path>
    <path d="M557.5,597.16s-5,1.61-5,5.16c0,0-.48,15.95,2.74,21.75,0,0,.97,1.77,5,3.06,0,0,8.86,19.18,24.66,19.01,0,0,13.86,1.93,11.6-12.57l1.13-2.42s6.45,.81,5.16-10.64c0,0-.48-19.66-2.9-30.13,0,0-.97-10.15-3.38-2.26,0,0-1.57,6.58-4.99,3.7-.4-.34-.67-.81-.75-1.32-.55-3.25-3.59-16.77-15.69-9.79-13.7,7.9-17.56,16.44-17.56,16.44Z" fill="#fff" stroke="#231f20" stroke-miterlimit="10"></path>
  </g>
  <g>
    <rect x="641.12" y="531.81" width="197.71" height="114.88" fill="#fff" stroke="#231f20" stroke-miterlimit="10"></rect>
    <polygon points="641.12 531.81 649.13 523.8 831.7 523.8 838.82 531.81 641.12 531.81" fill="#e3e4e5" stroke="#231f20" stroke-miterlimit="10"></polygon>
    <polygon points="732.14 523.84 730.17 531.81 730.17 559.42 749.77 559.42 749.77 531.79 747.09 523.8 732.14 523.84" fill="#0373b1" stroke="#231f20" stroke-miterlimit="10"></polygon>
  </g>
</svg>
