<svg width="450" height="376" viewBox="0 0 450 376" fill="none" xmlns="http://www.w3.org/2000/svg">
<path d="M115.224 252.771C115.807 252.131 116.799 252.085 117.439 252.668C121.602 256.459 121.902 262.907 118.111 267.069L83.696 304.853L77.2179 298.952C75.993 297.837 75.9045 295.939 77.0202 294.714L115.224 252.771Z" fill="#023047"/>
<path d="M107 36C107 34.8954 107.895 34 109 34H121V90H109C107.895 90 107 89.1046 107 88V36Z" fill="#023047"/>
<path d="M283.698 34H109.698V90H215.784V174C221.933 164.507 224.211 161.782 232.638 152.618C241.066 143.455 249.493 136.836 255.442 132.764C261.391 128.691 279.237 120.545 280.228 121.564C281.22 122.582 283.698 139.382 283.698 139.382V34Z" fill="#023047"/>
<path d="M220.198 341C220.198 341 196.198 282 195.698 278.5C195.198 275 193.647 271.195 195.698 252C197.75 232.805 205.533 207.692 211.198 198.5C216.863 189.308 230.698 167.5 238.698 159.5C246.698 151.5 256.698 144 256.698 144C256.698 144 276.692 130.46 274.198 132.5C271.815 134.45 305.383 227.091 311.09 234.095C311.402 234.149 311.61 234.28 311.698 234.5C311.56 234.561 311.355 234.42 311.09 234.095C306.556 233.32 279.948 249.107 276.198 252C272.19 255.092 251.176 275.089 238.698 297C230.069 308.885 220.198 341 220.198 341Z" fill="#03C39A"/>
<path d="M315.698 236C315.698 236 287.698 166 288.198 166C288.698 166 308.122 165.469 309.198 166C310.275 166.53 332.265 202.493 331.698 202C339.572 216.151 347.198 236 347.198 236C347.198 236 374.542 297.296 374.198 297C346.446 288.776 330.895 286.276 303.198 286C284.036 287.631 274.764 290.241 261.198 298.5C247.121 307.103 241.267 313.309 233.198 326C229.405 330.536 227.687 333.868 225.198 341C225.48 335.195 225.874 331.935 228.698 326C238.546 301.837 247.165 291.206 261.198 271.5C274.984 256.61 283.684 249.94 301.198 241.5L315.698 236Z" fill="#F67F00"/>
<path d="M265.698 299.5C248.172 310.108 241.253 317.852 232.698 334C244.121 321.235 251.488 315.347 268.198 309.5C286.139 306.053 296.764 305.53 317.698 309.5C332.506 312.744 340.753 315.19 355.198 322.5C351.918 310.591 349.652 304.155 344.198 293.5C333.813 292.209 328.004 291.655 317.698 291C297.534 289.831 286.111 291.879 265.698 299.5Z" fill="#D82629"/>
<path d="M260.698 316.5C252.269 320.484 247.972 323.718 241.198 332C249.336 326.453 253.813 322.98 262.698 322.5C275.956 321.054 282.582 323.856 293.698 332C291.542 323.898 290.185 319.347 283.198 311C274.926 311.784 269.943 313.136 260.698 316.5Z" fill="#0CB8C8"/>
<path d="M150.698 281.5C147.698 279.5 128.405 265.972 116.698 252C98.7958 270.198 89.9781 280.137 76.1983 297.5C92.3354 316.102 102.938 324.323 125.698 333.5C155.914 343.196 174.243 344.591 209.698 339L189.198 283C174.944 285.29 153.698 283.5 150.698 281.5Z" fill="#023047"/>
</svg>
